<svg width="18" height="18" viewBox="0 0 18 18" fill="none" xmlns="http://www.w3.org/2000/svg">
<path d="M16.5507 17.867C15.8937 17.3707 10.1814 11.5043 10.1814 11.5043C9.69696 11.9033 9.13308 12.2163 8.48977 12.4431C7.84645 12.6699 7.15885 12.7834 6.42695 12.7834C4.63187 12.7834 3.11194 12.1608 1.86716 10.9157C0.622388 9.67057 0 8.16257 0 6.39169C0 4.6208 0.622828 3.1128 1.86848 1.86769C3.11414 0.622564 4.62549 0 6.40253 0C8.1796 0 9.68824 0.622564 10.9285 1.86769C12.1687 3.1128 12.7888 4.62161 12.7888 6.39413C12.7888 7.10538 12.6781 7.7808 12.4567 8.4204C12.2353 9.06 11.914 9.6484 11.4929 10.1856C11.4929 10.1856 17.3837 15.7089 17.8804 16.5398C18.3771 17.3707 17.2077 18.3633 16.5507 17.867ZM6.41206 10.9344C7.67261 10.9344 8.74225 10.4915 9.62099 9.60576C10.4997 8.71996 10.9391 7.6486 10.9391 6.39169C10.9391 5.13477 10.4995 4.06341 9.62041 3.17763C8.74129 2.29182 7.67184 1.84892 6.41206 1.84892C5.14324 1.84892 4.06564 2.29182 3.17927 3.17763C2.29291 4.06341 1.84973 5.13477 1.84973 6.39169C1.84973 7.6486 2.29272 8.71996 3.17871 9.60576C4.06469 10.4915 5.14247 10.9344 6.41206 10.9344Z" fill="white"/>
</svg>
