<svg width="22" height="18" viewBox="0 0 22 18" fill="none" xmlns="http://www.w3.org/2000/svg">
<path d="M20.4885 18C17.9744 18 15.4939 17.5112 13.0471 16.5335C10.6003 15.5558 8.41146 14.2775 6.48047 12.6986C4.54947 11.1197 2.98664 9.32836 1.792 7.32471C0.597332 5.32105 0 3.29181 0 1.23697C0 0.887035 0.14502 0.593392 0.43506 0.356035C0.7251 0.118678 1.08392 0 1.51152 0H5.92972C6.30065 0 6.61671 0.0907438 6.87791 0.272232C7.13911 0.45372 7.30753 0.702585 7.38318 1.01883L8.1809 4.1235C8.23685 4.40748 8.23106 4.66121 8.16353 4.88468C8.09598 5.10816 7.95733 5.30116 7.74758 5.46367L4.74651 7.87992C5.74144 9.22769 6.88284 10.4248 8.1707 11.4713C9.45856 12.5179 10.9004 13.4109 12.4961 14.1505L15.3771 11.7574C15.6135 11.5569 15.8867 11.4156 16.1966 11.3334C16.5065 11.2513 16.8259 11.2392 17.1548 11.2973L20.7503 11.9383C21.1281 12.0083 21.4309 12.1547 21.6586 12.3775C21.8862 12.6004 22 12.8705 22 13.1881V16.7572C22 17.1097 21.855 17.405 21.5649 17.643C21.2749 17.881 20.9161 18 20.4885 18Z" fill="white"/>
</svg>
