<svg width="18" height="18" viewBox="0 0 18 18" fill="none" xmlns="http://www.w3.org/2000/svg">
<path d="M16.7633 18C14.7063 18 12.6768 17.5112 10.6749 16.5335C8.67301 15.5558 6.8821 14.2775 5.30221 12.6986C3.72229 11.1197 2.44362 9.32836 1.46618 7.32471C0.488726 5.32105 0 3.29181 0 1.23697C0 0.887035 0.118653 0.593392 0.355958 0.356035C0.593264 0.118678 0.886843 0 1.2367 0H4.85159C5.15508 0 5.41367 0.0907438 5.62738 0.272232C5.84109 0.45372 5.97889 0.702585 6.04078 1.01883L6.69346 4.1235C6.73924 4.40748 6.7345 4.66121 6.67925 4.88468C6.62398 5.10816 6.51054 5.30116 6.33893 5.46367L3.8835 7.87992C4.69754 9.22769 5.63142 10.4248 6.68512 11.4713C7.73882 12.5179 8.91847 13.4109 10.2241 14.1505L12.5813 11.7574C12.7747 11.5569 12.9982 11.4156 13.2518 11.3334C13.5053 11.2513 13.7666 11.2392 14.0357 11.2973L16.9775 11.9383C17.2867 12.0083 17.5344 12.1547 17.7206 12.3775C17.9069 12.6004 18 12.8705 18 13.1881V16.7572C18 17.1097 17.8813 17.405 17.644 17.643C17.4067 17.881 17.1132 18 16.7633 18Z" fill="white"/>
</svg>
