<svg width="573" height="146" viewBox="0 0 573 146" fill="none" xmlns="http://www.w3.org/2000/svg">
<g filter="url(#filter0_bi_1208_1548)">
<path d="M0.456 52V0.735999H11.184C13.536 0.735999 15.528 1.096 17.16 1.816C18.84 2.536 20.208 3.496 21.264 4.696C22.32 5.896 23.064 7.288 23.496 8.872C23.976 10.408 24.216 12.016 24.216 13.696V15.568C24.216 16.96 24.096 18.136 23.856 19.096C23.664 20.056 23.352 20.896 22.92 21.616C22.104 22.96 20.856 24.112 19.176 25.072C20.904 25.888 22.176 27.088 22.992 28.672C23.808 30.256 24.216 32.416 24.216 35.152V38.032C24.216 42.544 23.112 46 20.904 48.4C18.744 50.8 15.264 52 10.464 52H0.456ZM7.8 28.24V44.656H10.968C12.456 44.656 13.608 44.44 14.424 44.008C15.288 43.576 15.936 42.976 16.368 42.208C16.8 41.44 17.064 40.528 17.16 39.472C17.256 38.416 17.304 37.264 17.304 36.016C17.304 34.72 17.232 33.592 17.088 32.632C16.944 31.672 16.656 30.856 16.224 30.184C15.744 29.512 15.096 29.032 14.28 28.744C13.464 28.408 12.384 28.24 11.04 28.24H7.8ZM7.8 7.648V21.76H11.112C13.56 21.76 15.192 21.16 16.008 19.96C16.872 18.712 17.304 16.912 17.304 14.56C17.304 12.256 16.824 10.528 15.864 9.376C14.952 8.224 13.272 7.648 10.824 7.648H7.8ZM31.1123 52V0.735999H53.0003V7.648H38.4563V22.696H51.1283V29.608H38.4563V44.656H53.0003V52H31.1123ZM63.2878 52V7.648H54.7918V0.735999H79.1278V7.648H70.6318V52H63.2878ZM82.3701 52V0.735999H104.258V7.648H89.7141V22.696H102.386V29.608H89.7141V44.656H104.258V52H82.3701ZM109.019 52V0.735999H120.035C122.051 0.735999 123.827 0.999999 125.363 1.528C126.899 2.056 128.291 2.992 129.539 4.336C130.787 5.68 131.651 7.264 132.131 9.088C132.611 10.864 132.851 13.288 132.851 16.36C132.851 18.664 132.707 20.608 132.419 22.192C132.179 23.776 131.627 25.264 130.763 26.656C129.755 28.336 128.411 29.656 126.73 30.616C125.051 31.528 122.843 31.984 120.107 31.984H116.363V52H109.019ZM116.363 7.648V25.072H119.891C121.379 25.072 122.531 24.856 123.347 24.424C124.163 23.992 124.763 23.392 125.147 22.624C125.531 21.904 125.747 21.016 125.795 19.96C125.891 18.904 125.939 17.728 125.939 16.432C125.939 15.232 125.915 14.104 125.867 13.048C125.819 11.944 125.603 10.984 125.219 10.168C124.835 9.352 124.259 8.728 123.491 8.296C122.723 7.864 121.619 7.648 120.179 7.648H116.363ZM155.475 52V18.736H155.331L145.683 52H138.339V0.735999H145.683V34.072H145.827L155.475 0.735999H162.819V52H155.475ZM169.698 52V0.735999H177.042V22.696H186.114V0.735999H193.458V52H186.114V29.176H177.042V52H169.698ZM215.186 34.072L211.586 15.496H211.442L207.842 34.072H215.186ZM197.042 52L208.49 0.735999H214.61L226.058 52H218.714L216.554 40.984H206.546L204.386 52H197.042ZM229.675 52V0.735999H240.691C242.707 0.735999 244.483 0.999999 246.019 1.528C247.555 2.056 248.947 2.992 250.195 4.336C251.443 5.68 252.307 7.264 252.787 9.088C253.267 10.864 253.507 13.288 253.507 16.36C253.507 18.664 253.363 20.608 253.075 22.192C252.835 23.776 252.283 25.264 251.419 26.656C250.411 28.336 249.067 29.656 247.387 30.616C245.707 31.528 243.499 31.984 240.763 31.984H237.019V52H229.675ZM237.019 7.648V25.072H240.547C242.035 25.072 243.187 24.856 244.003 24.424C244.819 23.992 245.419 23.392 245.803 22.624C246.187 21.904 246.403 21.016 246.451 19.96C246.547 18.904 246.595 17.728 246.595 16.432C246.595 15.232 246.571 14.104 246.523 13.048C246.475 11.944 246.259 10.984 245.875 10.168C245.491 9.352 244.915 8.728 244.147 8.296C243.379 7.864 242.275 7.648 240.835 7.648H237.019ZM258.995 52V0.735999H266.339V22.696H275.411V0.735999H282.755V52H275.411V29.176H266.339V52H258.995ZM304.483 34.072L300.883 15.496H300.739L297.139 34.072H304.483ZM286.339 52L297.787 0.735999H303.907L315.355 52H308.011L305.851 40.984H295.843L293.683 52H286.339ZM330.941 7.648C328.349 7.648 326.645 8.344 325.829 9.736C325.061 11.08 324.677 13.048 324.677 15.64C324.677 16.936 324.749 18.088 324.893 19.096C325.037 20.056 325.301 20.872 325.685 21.544C326.117 22.216 326.717 22.744 327.485 23.128C328.253 23.464 329.285 23.632 330.581 23.632H334.109V7.648H330.941ZM334.109 52V30.112H330.725L324.316 52H316.829L323.812 29.176C322.661 28.744 321.653 28.096 320.789 27.232C319.925 26.368 319.229 25.384 318.701 24.28C318.173 23.176 317.813 21.88 317.621 20.392C317.429 18.904 317.333 17.368 317.333 15.784C317.333 5.752 321.653 0.735999 330.293 0.735999H341.453V52H334.109ZM387.354 7.648C386.682 7.648 386.13 7.744 385.698 7.936C385.266 8.08 384.858 8.368 384.474 8.8C384.09 9.232 383.826 9.76 383.682 10.384C383.538 11.008 383.418 11.704 383.322 12.472L382.674 18.448C382.626 19.072 382.554 19.648 382.458 20.176C382.362 20.656 382.266 21.16 382.17 21.688C382.074 22.168 381.93 22.6 381.738 22.984C381.45 23.656 381.09 24.256 380.658 24.784C380.274 25.264 379.89 25.648 379.506 25.936L387.138 52H379.65L373.17 29.176H369.066V52H361.722V0.735999H369.066V22.696H371.514C372.378 22.696 373.074 22.576 373.602 22.336C374.13 22.096 374.562 21.76 374.898 21.328C375.234 20.896 375.474 20.416 375.618 19.888C375.762 19.312 375.882 18.688 375.978 18.016L376.698 11.896C376.746 11.704 376.794 11.32 376.842 10.744C376.938 10.12 377.082 9.424 377.274 8.656C377.466 7.888 377.73 7.096 378.066 6.28C378.402 5.464 378.834 4.696 379.362 3.976C380.274 2.824 381.378 2.008 382.674 1.528C384.018 0.999999 385.578 0.735999 387.354 0.735999V7.648ZM402.406 7.216V22.12C402.406 22.888 402.382 24.208 402.334 26.08C402.286 27.904 402.166 29.92 401.974 32.128C401.782 34.336 401.494 36.52 401.11 38.68C400.726 40.84 400.198 42.64 399.526 44.08C398.374 46.528 396.91 48.472 395.134 49.912C393.358 51.304 391.198 52 388.654 52H388.222V44.656C389.662 44.56 390.79 44.128 391.606 43.36C392.422 42.592 393.094 41.632 393.622 40.48C394.054 39.472 394.39 38.248 394.63 36.808C394.918 35.368 395.134 33.832 395.278 32.2C395.422 30.568 395.518 28.888 395.566 27.16C395.614 25.432 395.638 23.776 395.638 22.192V0.735999H416.95V52H409.606V7.216H402.406ZM441.014 52V18.736H440.87L431.222 52H423.878V0.735999H431.222V34.072H431.366L441.014 0.735999H448.358V52H441.014ZM455.237 52V0.735999H462.581V22.696H471.653V0.735999H478.997V52H471.653V29.176H462.581V52H455.237ZM503.03 52V18.736H502.886L493.238 52H485.894V0.735999H493.238V34.072H493.382L503.03 0.735999H510.374V52H503.03ZM542.885 7.648C542.213 7.648 541.661 7.744 541.229 7.936C540.797 8.08 540.389 8.368 540.005 8.8C539.621 9.232 539.357 9.76 539.213 10.384C539.069 11.008 538.949 11.704 538.853 12.472L538.205 18.448C538.157 19.072 538.085 19.648 537.989 20.176C537.893 20.656 537.797 21.16 537.701 21.688C537.605 22.168 537.461 22.6 537.269 22.984C536.981 23.656 536.621 24.256 536.189 24.784C535.805 25.264 535.421 25.648 535.037 25.936L542.669 52H535.181L528.701 29.176H524.597V52H517.253V0.735999H524.597V22.696H527.045C527.909 22.696 528.605 22.576 529.133 22.336C529.661 22.096 530.093 21.76 530.429 21.328C530.765 20.896 531.005 20.416 531.149 19.888C531.293 19.312 531.413 18.688 531.509 18.016L532.229 11.896C532.277 11.704 532.325 11.32 532.373 10.744C532.469 10.12 532.613 9.424 532.805 8.656C532.997 7.888 533.261 7.096 533.597 6.28C533.933 5.464 534.365 4.696 534.893 3.976C535.805 2.824 536.909 2.008 538.205 1.528C539.549 0.999999 541.109 0.735999 542.885 0.735999V7.648ZM561.897 34.072L558.297 15.496H558.153L554.553 34.072H561.897ZM543.753 52L555.201 0.735999H561.321L572.769 52H565.425L563.265 40.984H553.257L551.097 52H543.753Z" fill="#434343"/>
<path d="M26.088 93.648C25.416 93.648 24.864 93.744 24.432 93.936C24 94.08 23.592 94.368 23.208 94.8C22.824 95.232 22.56 95.76 22.416 96.384C22.272 97.008 22.152 97.704 22.056 98.472L21.408 104.448C21.36 105.072 21.288 105.648 21.192 106.176C21.096 106.656 21 107.16 20.904 107.688C20.808 108.168 20.664 108.6 20.472 108.984C20.184 109.656 19.824 110.256 19.392 110.784C19.008 111.264 18.624 111.648 18.24 111.936L25.872 138H18.384L11.904 115.176H7.8V138H0.456V86.736H7.8V108.696H10.248C11.112 108.696 11.808 108.576 12.336 108.336C12.864 108.096 13.296 107.76 13.632 107.328C13.968 106.896 14.208 106.416 14.352 105.888C14.496 105.312 14.616 104.688 14.712 104.016L15.432 97.896C15.48 97.704 15.528 97.32 15.576 96.744C15.672 96.12 15.816 95.424 16.008 94.656C16.2 93.888 16.464 93.096 16.8 92.28C17.136 91.464 17.568 90.696 18.096 89.976C19.008 88.824 20.112 88.008 21.408 87.528C22.752 87 24.312 86.736 26.088 86.736V93.648ZM30.2685 138V86.736H41.2845C43.3005 86.736 45.0765 87 46.6125 87.528C48.1485 88.056 49.5405 88.992 50.7885 90.336C52.0365 91.68 52.9005 93.264 53.3805 95.088C53.8605 96.864 54.1005 99.288 54.1005 102.36C54.1005 104.664 53.9565 106.608 53.6685 108.192C53.4285 109.776 52.8765 111.264 52.0125 112.656C51.0045 114.336 49.6605 115.656 47.9805 116.616C46.3005 117.528 44.0925 117.984 41.3565 117.984H37.6125V138H30.2685ZM37.6125 93.648V111.072H41.1405C42.6285 111.072 43.7805 110.856 44.5965 110.424C45.4125 109.992 46.0125 109.392 46.3965 108.624C46.7805 107.904 46.9965 107.016 47.0445 105.96C47.1405 104.904 47.1885 103.728 47.1885 102.432C47.1885 101.232 47.1645 100.104 47.1165 99.048C47.0685 97.944 46.8525 96.984 46.4685 96.168C46.0845 95.352 45.5085 94.728 44.7405 94.296C43.9725 93.864 42.8685 93.648 41.4285 93.648H37.6125ZM71.7489 120.072L68.1489 101.496H68.0049L64.4049 120.072H71.7489ZM53.6049 138L65.0529 86.736H71.1729L82.6209 138H75.2769L73.1169 126.984H63.1089L60.9489 138H53.6049ZM86.2373 138V86.736H93.5813V108.696H102.653V86.736H109.997V138H102.653V115.176H93.5813V138H86.2373ZM116.894 138V86.736H124.238V131.52H132.95V86.736H140.294V131.52H144.47V145.92H138.134V138H116.894ZM161.683 138V86.736H168.739L178.171 113.88H178.315L187.675 86.736H194.803V138H187.459V106.824H187.315L180.043 128.856H176.371L169.171 106.824H169.027V138H161.683ZM202.554 131.088C203.226 131.088 203.994 131.016 204.858 130.872C205.722 130.728 206.394 130.416 206.874 129.936C207.258 129.552 207.666 128.952 208.098 128.136C208.578 127.272 209.01 126.072 209.394 124.536L210.042 121.728L198.954 86.736H206.73L213.642 110.856H213.786L219.186 86.736H226.962L216.306 125.688C215.634 128.04 214.914 130.128 214.146 131.952C213.378 133.776 212.298 135.24 210.906 136.344C209.754 137.304 208.53 137.88 207.234 138.072C205.986 138.312 204.594 138.432 203.058 138.432H202.05V131.088H202.554ZM230.87 138V86.736H241.886C243.902 86.736 245.678 87 247.214 87.528C248.75 88.056 250.142 88.992 251.39 90.336C252.638 91.68 253.502 93.264 253.982 95.088C254.462 96.864 254.702 99.288 254.702 102.36C254.702 104.664 254.558 106.608 254.27 108.192C254.03 109.776 253.478 111.264 252.614 112.656C251.606 114.336 250.262 115.656 248.582 116.616C246.902 117.528 244.694 117.984 241.958 117.984H238.214V138H230.87ZM238.214 93.648V111.072H241.742C243.23 111.072 244.382 110.856 245.198 110.424C246.014 109.992 246.614 109.392 246.998 108.624C247.382 107.904 247.598 107.016 247.646 105.96C247.742 104.904 247.79 103.728 247.79 102.432C247.79 101.232 247.766 100.104 247.718 99.048C247.67 97.944 247.454 96.984 247.07 96.168C246.686 95.352 246.11 94.728 245.342 94.296C244.574 93.864 243.47 93.648 242.03 93.648H238.214Z" fill="url(#paint0_linear_1208_1548)"/>
</g>
<defs>
<filter id="filter0_bi_1208_1548" x="-14.5449" y="-14.2639" width="602.314" height="175.184" filterUnits="userSpaceOnUse" color-interpolation-filters="sRGB">
<feFlood flood-opacity="0" result="BackgroundImageFix"/>
<feGaussianBlur in="BackgroundImageFix" stdDeviation="7.5"/>
<feComposite in2="SourceAlpha" operator="in" result="effect1_backgroundBlur_1208_1548"/>
<feBlend mode="normal" in="SourceGraphic" in2="effect1_backgroundBlur_1208_1548" result="shape"/>
<feColorMatrix in="SourceAlpha" type="matrix" values="0 0 0 0 0 0 0 0 0 0 0 0 0 0 0 0 0 0 127 0" result="hardAlpha"/>
<feOffset dy="5"/>
<feGaussianBlur stdDeviation="5"/>
<feComposite in2="hardAlpha" operator="arithmetic" k2="-1" k3="1"/>
<feColorMatrix type="matrix" values="0 0 0 0 0.8875 0 0 0 0 0.8875 0 0 0 0 0.8875 0 0 0 0.15 0"/>
<feBlend mode="normal" in2="shape" result="effect2_innerShadow_1208_1548"/>
</filter>
<linearGradient id="paint0_linear_1208_1548" x1="408.17" y1="128.609" x2="-13.6383" y2="128.609" gradientUnits="userSpaceOnUse">
<stop stop-color="#6E6E6F"/>
<stop offset="0.234375" stop-color="white"/>
<stop offset="0.604167" stop-color="#668BE9"/>
<stop offset="1" stop-color="#595959"/>
</linearGradient>
</defs>
</svg>
