<svg width="382" height="99" viewBox="0 0 382 99" fill="none" xmlns="http://www.w3.org/2000/svg">
<g filter="url(#filter0_bi_1103_464)">
<path d="M0.304 35V0.823999H7.456C9.024 0.823999 10.352 1.064 11.44 1.544C12.56 2.024 13.472 2.664 14.176 3.464C14.88 4.264 15.376 5.192 15.664 6.248C15.984 7.272 16.144 8.344 16.144 9.464V10.712C16.144 11.64 16.064 12.424 15.904 13.064C15.776 13.704 15.568 14.264 15.28 14.744C14.736 15.64 13.904 16.408 12.784 17.048C13.936 17.592 14.784 18.392 15.328 19.448C15.872 20.504 16.144 21.944 16.144 23.768V25.688C16.144 28.696 15.408 31 13.936 32.6C12.496 34.2 10.176 35 6.976 35H0.304ZM5.2 19.16V30.104H7.312C8.304 30.104 9.072 29.96 9.616 29.672C10.192 29.384 10.624 28.984 10.912 28.472C11.2 27.96 11.376 27.352 11.44 26.648C11.504 25.944 11.536 25.176 11.536 24.344C11.536 23.48 11.488 22.728 11.392 22.088C11.296 21.448 11.104 20.904 10.816 20.456C10.496 20.008 10.064 19.688 9.52 19.496C8.976 19.272 8.256 19.16 7.36 19.16H5.2ZM5.2 5.432V14.84H7.408C9.04 14.84 10.128 14.44 10.672 13.64C11.248 12.808 11.536 11.608 11.536 10.04C11.536 8.504 11.216 7.352 10.576 6.584C9.968 5.816 8.848 5.432 7.216 5.432H5.2ZM20.7415 35V0.823999H35.3335V5.432H25.6375V15.464H34.0855V20.072H25.6375V30.104H35.3335V35H20.7415ZM42.1919 35V5.432H36.5279V0.823999H52.7519V5.432H47.0879V35H42.1919ZM54.9134 35V0.823999H69.5054V5.432H59.8094V15.464H68.2574V20.072H59.8094V30.104H69.5054V35H54.9134ZM72.679 35V0.823999H80.023C81.367 0.823999 82.551 0.999999 83.575 1.352C84.599 1.704 85.527 2.328 86.359 3.224C87.191 4.12 87.767 5.176 88.087 6.392C88.407 7.576 88.567 9.192 88.567 11.24C88.567 12.776 88.471 14.072 88.279 15.128C88.119 16.184 87.751 17.176 87.175 18.104C86.503 19.224 85.607 20.104 84.487 20.744C83.367 21.352 81.895 21.656 80.071 21.656H77.575V35H72.679ZM77.575 5.432V17.048H79.927C80.919 17.048 81.687 16.904 82.231 16.616C82.775 16.328 83.175 15.928 83.431 15.416C83.687 14.936 83.831 14.344 83.863 13.64C83.927 12.936 83.959 12.152 83.959 11.288C83.959 10.488 83.943 9.736 83.911 9.032C83.879 8.296 83.735 7.656 83.479 7.112C83.223 6.568 82.839 6.152 82.327 5.864C81.815 5.576 81.079 5.432 80.119 5.432H77.575ZM103.65 35V12.824H103.554L97.1219 35H92.2259V0.823999H97.1219V23.048H97.2179L103.65 0.823999H108.546V35H103.65ZM113.132 35V0.823999H118.028V15.464H124.076V0.823999H128.972V35H124.076V19.784H118.028V35H113.132ZM143.458 23.048L141.058 10.664H140.962L138.562 23.048H143.458ZM131.362 35L138.994 0.823999H143.074L150.706 35H145.81L144.37 27.656H137.698L136.258 35H131.362ZM153.117 35V0.823999H160.461C161.805 0.823999 162.989 0.999999 164.013 1.352C165.037 1.704 165.965 2.328 166.797 3.224C167.629 4.12 168.205 5.176 168.525 6.392C168.845 7.576 169.005 9.192 169.005 11.24C169.005 12.776 168.909 14.072 168.717 15.128C168.557 16.184 168.189 17.176 167.613 18.104C166.941 19.224 166.045 20.104 164.924 20.744C163.805 21.352 162.333 21.656 160.509 21.656H158.013V35H153.117ZM158.013 5.432V17.048H160.365C161.357 17.048 162.125 16.904 162.669 16.616C163.213 16.328 163.613 15.928 163.869 15.416C164.125 14.936 164.269 14.344 164.301 13.64C164.365 12.936 164.397 12.152 164.397 11.288C164.397 10.488 164.381 9.736 164.349 9.032C164.317 8.296 164.173 7.656 163.917 7.112C163.661 6.568 163.277 6.152 162.765 5.864C162.253 5.576 161.517 5.432 160.557 5.432H158.013ZM172.663 35V0.823999H177.559V15.464H183.607V0.823999H188.503V35H183.607V19.784H177.559V35H172.663ZM202.989 23.048L200.589 10.664H200.493L198.093 23.048H202.989ZM190.893 35L198.525 0.823999H202.605L210.237 35H205.341L203.901 27.656H197.229L195.789 35H190.893ZM220.627 5.432C218.899 5.432 217.763 5.896 217.219 6.824C216.707 7.72 216.451 9.032 216.451 10.76C216.451 11.624 216.499 12.392 216.595 13.064C216.691 13.704 216.867 14.248 217.123 14.696C217.411 15.144 217.811 15.496 218.323 15.752C218.835 15.976 219.523 16.088 220.387 16.088H222.739V5.432H220.627ZM222.739 35V20.408H220.483L216.211 35H211.219L215.875 19.784C215.107 19.496 214.435 19.064 213.859 18.488C213.283 17.912 212.819 17.256 212.467 16.52C212.115 15.784 211.875 14.92 211.747 13.928C211.619 12.936 211.555 11.912 211.555 10.856C211.555 4.168 214.435 0.823999 220.195 0.823999H227.635V35H222.739ZM258.236 5.432C257.788 5.432 257.42 5.496 257.132 5.624C256.844 5.72 256.572 5.912 256.316 6.2C256.06 6.488 255.884 6.84 255.788 7.256C255.692 7.672 255.612 8.136 255.548 8.648L255.116 12.632C255.084 13.048 255.036 13.432 254.972 13.784C254.908 14.104 254.844 14.44 254.78 14.792C254.716 15.112 254.62 15.4 254.492 15.656C254.3 16.104 254.06 16.504 253.772 16.856C253.516 17.176 253.26 17.432 253.004 17.624L258.092 35H253.1L248.78 19.784H246.044V35H241.148V0.823999H246.044V15.464H247.676C248.252 15.464 248.716 15.384 249.068 15.224C249.42 15.064 249.708 14.84 249.932 14.552C250.156 14.264 250.316 13.944 250.412 13.592C250.508 13.208 250.588 12.792 250.652 12.344L251.132 8.264C251.164 8.136 251.196 7.88 251.228 7.496C251.292 7.08 251.388 6.616 251.516 6.104C251.644 5.592 251.82 5.064 252.044 4.52C252.268 3.976 252.556 3.464 252.908 2.984C253.516 2.216 254.252 1.672 255.116 1.352C256.012 0.999999 257.052 0.823999 258.236 0.823999V5.432ZM268.271 5.144V15.08C268.271 15.592 268.255 16.472 268.223 17.72C268.191 18.936 268.111 20.28 267.983 21.752C267.855 23.224 267.663 24.68 267.407 26.12C267.151 27.56 266.799 28.76 266.351 29.72C265.583 31.352 264.607 32.648 263.423 33.608C262.239 34.536 260.799 35 259.103 35H258.815V30.104C259.775 30.04 260.527 29.752 261.071 29.24C261.615 28.728 262.063 28.088 262.415 27.32C262.703 26.648 262.927 25.832 263.087 24.872C263.279 23.912 263.423 22.888 263.519 21.8C263.615 20.712 263.679 19.592 263.711 18.44C263.743 17.288 263.759 16.184 263.759 15.128V0.823999H277.967V35H273.071V5.144H268.271ZM294.009 35V12.824H293.913L287.481 35H282.585V0.823999H287.481V23.048H287.577L294.009 0.823999H298.905V35H294.009ZM303.492 35V0.823999H308.388V15.464H314.436V0.823999H319.332V35H314.436V19.784H308.388V35H303.492ZM335.353 35V12.824H335.257L328.825 35H323.929V0.823999H328.825V23.048H328.921L335.353 0.823999H340.249V35H335.353ZM361.923 5.432C361.475 5.432 361.107 5.496 360.819 5.624C360.531 5.72 360.259 5.912 360.003 6.2C359.747 6.488 359.571 6.84 359.475 7.256C359.379 7.672 359.299 8.136 359.235 8.648L358.803 12.632C358.771 13.048 358.723 13.432 358.659 13.784C358.595 14.104 358.531 14.44 358.467 14.792C358.403 15.112 358.307 15.4 358.179 15.656C357.987 16.104 357.747 16.504 357.459 16.856C357.203 17.176 356.947 17.432 356.691 17.624L361.779 35H356.787L352.467 19.784H349.731V35H344.835V0.823999H349.731V15.464H351.363C351.939 15.464 352.403 15.384 352.755 15.224C353.107 15.064 353.395 14.84 353.619 14.552C353.843 14.264 354.003 13.944 354.099 13.592C354.195 13.208 354.275 12.792 354.339 12.344L354.819 8.264C354.851 8.136 354.883 7.88 354.915 7.496C354.979 7.08 355.075 6.616 355.203 6.104C355.331 5.592 355.507 5.064 355.731 4.52C355.955 3.976 356.243 3.464 356.595 2.984C357.203 2.216 357.939 1.672 358.803 1.352C359.699 0.999999 360.739 0.823999 361.923 0.823999V5.432ZM374.598 23.048L372.198 10.664H372.102L369.702 23.048H374.598ZM362.502 35L370.134 0.823999H374.214L381.846 35H376.95L375.51 27.656H368.838L367.398 35H362.502Z" fill="#434343"/>
<path d="M17.392 63.432C16.944 63.432 16.576 63.496 16.288 63.624C16 63.72 15.728 63.912 15.472 64.2C15.216 64.488 15.04 64.84 14.944 65.256C14.848 65.672 14.768 66.136 14.704 66.648L14.272 70.632C14.24 71.048 14.192 71.432 14.128 71.784C14.064 72.104 14 72.44 13.936 72.792C13.872 73.112 13.776 73.4 13.648 73.656C13.456 74.104 13.216 74.504 12.928 74.856C12.672 75.176 12.416 75.432 12.16 75.624L17.248 93H12.256L7.936 77.784H5.2V93H0.304V58.824H5.2V73.464H6.832C7.408 73.464 7.872 73.384 8.224 73.224C8.576 73.064 8.864 72.84 9.088 72.552C9.312 72.264 9.472 71.944 9.568 71.592C9.664 71.208 9.744 70.792 9.808 70.344L10.288 66.264C10.32 66.136 10.352 65.88 10.384 65.496C10.448 65.08 10.544 64.616 10.672 64.104C10.8 63.592 10.976 63.064 11.2 62.52C11.424 61.976 11.712 61.464 12.064 60.984C12.672 60.216 13.408 59.672 14.272 59.352C15.168 59 16.208 58.824 17.392 58.824V63.432ZM20.179 93V58.824H27.523C28.867 58.824 30.051 59 31.075 59.352C32.099 59.704 33.027 60.328 33.859 61.224C34.691 62.12 35.267 63.176 35.587 64.392C35.907 65.576 36.067 67.192 36.067 69.24C36.067 70.776 35.971 72.072 35.779 73.128C35.619 74.184 35.251 75.176 34.675 76.104C34.003 77.224 33.107 78.104 31.987 78.744C30.867 79.352 29.395 79.656 27.571 79.656H25.075V93H20.179ZM25.075 63.432V75.048H27.427C28.419 75.048 29.187 74.904 29.731 74.616C30.275 74.328 30.675 73.928 30.931 73.416C31.187 72.936 31.331 72.344 31.363 71.64C31.427 70.936 31.459 70.152 31.459 69.288C31.459 68.488 31.443 67.736 31.411 67.032C31.379 66.296 31.235 65.656 30.979 65.112C30.723 64.568 30.339 64.152 29.827 63.864C29.315 63.576 28.579 63.432 27.619 63.432H25.075ZM47.8326 81.048L45.4326 68.664H45.3366L42.9366 81.048H47.8326ZM35.7366 93L43.3686 58.824H47.4486L55.0806 93H50.1846L48.7446 85.656H42.0726L40.6326 93H35.7366ZM57.4915 93V58.824H62.3875V73.464H68.4355V58.824H73.3315V93H68.4355V77.784H62.3875V93H57.4915ZM77.929 93V58.824H82.825V88.68H88.633V58.824H93.529V88.68H96.313V98.28H92.089V93H77.929ZM107.788 93V58.824H112.492L118.78 76.92H118.876L125.116 58.824H129.868V93H124.972V72.216H124.876L120.028 86.904H117.58L112.78 72.216H112.684V93H107.788ZM135.036 88.392C135.484 88.392 135.996 88.344 136.572 88.248C137.148 88.152 137.596 87.944 137.916 87.624C138.172 87.368 138.444 86.968 138.732 86.424C139.052 85.848 139.34 85.048 139.596 84.024L140.028 82.152L132.636 58.824H137.82L142.428 74.904H142.524L146.124 58.824H151.308L144.204 84.792C143.756 86.36 143.276 87.752 142.764 88.968C142.252 90.184 141.532 91.16 140.604 91.896C139.836 92.536 139.02 92.92 138.156 93.048C137.324 93.208 136.396 93.288 135.372 93.288H134.7V88.392H135.036ZM153.913 93V58.824H161.257C162.601 58.824 163.785 59 164.809 59.352C165.833 59.704 166.761 60.328 167.593 61.224C168.425 62.12 169.001 63.176 169.321 64.392C169.641 65.576 169.801 67.192 169.801 69.24C169.801 70.776 169.705 72.072 169.513 73.128C169.353 74.184 168.985 75.176 168.409 76.104C167.737 77.224 166.841 78.104 165.721 78.744C164.601 79.352 163.129 79.656 161.305 79.656H158.809V93H153.913ZM158.809 63.432V75.048H161.161C162.153 75.048 162.921 74.904 163.465 74.616C164.009 74.328 164.409 73.928 164.665 73.416C164.921 72.936 165.065 72.344 165.097 71.64C165.161 70.936 165.193 70.152 165.193 69.288C165.193 68.488 165.177 67.736 165.145 67.032C165.113 66.296 164.969 65.656 164.713 65.112C164.457 64.568 164.073 64.152 163.561 63.864C163.049 63.576 162.313 63.432 161.353 63.432H158.809Z" fill="url(#paint0_linear_1103_464)"/>
</g>
<defs>
<filter id="filter0_bi_1103_464" x="-14.6963" y="-14.1758" width="411.543" height="127.456" filterUnits="userSpaceOnUse" color-interpolation-filters="sRGB">
<feFlood flood-opacity="0" result="BackgroundImageFix"/>
<feGaussianBlur in="BackgroundImageFix" stdDeviation="7.5"/>
<feComposite in2="SourceAlpha" operator="in" result="effect1_backgroundBlur_1103_464"/>
<feBlend mode="normal" in="SourceGraphic" in2="effect1_backgroundBlur_1103_464" result="shape"/>
<feColorMatrix in="SourceAlpha" type="matrix" values="0 0 0 0 0 0 0 0 0 0 0 0 0 0 0 0 0 0 127 0" result="hardAlpha"/>
<feOffset dy="5"/>
<feGaussianBlur stdDeviation="5"/>
<feComposite in2="hardAlpha" operator="arithmetic" k2="-1" k3="1"/>
<feColorMatrix type="matrix" values="0 0 0 0 0.8875 0 0 0 0 0.8875 0 0 0 0 0.8875 0 0 0 0.15 0"/>
<feBlend mode="normal" in2="shape" result="effect2_innerShadow_1103_464"/>
</filter>
<linearGradient id="paint0_linear_1103_464" x1="274.855" y1="96.9565" x2="-9.16312" y2="96.9565" gradientUnits="userSpaceOnUse">
<stop stop-color="#6E6E6F"/>
<stop offset="0.234375" stop-color="white"/>
<stop offset="0.604167" stop-color="#668BE9"/>
<stop offset="1" stop-color="#595959"/>
</linearGradient>
</defs>
</svg>
