<svg width="207" height="207" viewBox="0 0 207 207" fill="none" xmlns="http://www.w3.org/2000/svg">
<circle cx="102.83" cy="102.233" r="44" fill="#668BE9"/>
<rect x="88.8301" y="80.2327" width="28" height="44" rx="14" stroke="white" stroke-width="2"/>
<path d="M135.279 58.378L141.684 50.7033L147.445 55.5111L141.041 63.1859L140.084 62.3876L145.78 55.562L141.943 52.3597L136.247 59.1853L135.279 58.378Z" fill="#5672B6"/>
<path d="M152.455 60.8308C153.3 61.8275 153.72 62.7196 153.715 63.5072C153.709 64.2948 153.351 64.9904 152.639 65.5939C152.326 65.8595 151.978 66.0626 151.596 66.2033C151.226 66.3451 150.828 66.3951 150.401 66.3533C149.974 66.3115 149.527 66.1522 149.06 65.8753C148.6 65.5924 148.128 65.1662 147.645 64.5967L146.903 63.721L143.934 66.2379L143.119 65.2768L150.744 58.8126L152.455 60.8308ZM151.56 61.4425L150.737 60.4708L147.725 63.0239L148.377 63.7927C148.787 64.2768 149.178 64.6368 149.55 64.8727C149.928 65.1025 150.298 65.1991 150.658 65.1626C151.019 65.1261 151.384 64.9509 151.754 64.637C152.245 64.2206 152.479 63.7531 152.456 63.2347C152.432 62.7162 152.134 62.1188 151.56 61.4425Z" fill="#5672B6"/>
<path d="M157.166 76.6199C156.5 77.0142 155.843 77.2886 155.197 77.443C154.559 77.5926 153.943 77.6152 153.35 77.5106C152.762 77.414 152.216 77.1785 151.712 76.8039C151.214 76.4374 150.772 75.9288 150.387 75.2781C149.988 74.6033 149.746 73.9551 149.66 73.3335C149.582 72.7071 149.639 72.1152 149.83 71.5578C150.028 70.9956 150.353 70.4727 150.805 69.9889C151.256 69.5051 151.815 69.0661 152.482 68.6717C153.365 68.1491 154.222 67.8375 155.052 67.7371C155.882 67.6367 156.655 67.7705 157.371 68.1383C158.092 68.5142 158.719 69.1521 159.251 70.0518C159.759 70.9114 160.002 71.7437 159.98 72.5487C159.965 73.3489 159.712 74.0949 159.221 74.7865C158.743 75.4813 158.058 76.0925 157.166 76.6199ZM153.147 69.8236C152.424 70.2512 151.861 70.7199 151.457 71.2295C151.054 71.7392 150.835 72.2861 150.801 72.8701C150.772 73.4622 150.947 74.0795 151.327 74.7222C151.712 75.3729 152.166 75.82 152.69 76.0634C153.218 76.3148 153.802 76.3865 154.443 76.2785C155.084 76.1705 155.766 75.9027 156.489 75.4751C157.574 74.8337 158.288 74.1075 158.633 73.2965C158.985 72.4808 158.874 71.5869 158.299 70.6149C157.914 69.9641 157.455 69.5091 156.922 69.2496C156.402 68.9934 155.822 68.9193 155.181 69.0273C154.548 69.1305 153.87 69.396 153.147 69.8236Z" fill="#5672B6"/>
<path d="M156.041 87.5214L155.502 86.1087L158.625 80.0773L153.89 81.8837L153.441 80.7064L162.78 77.1437L163.229 78.3209L158.704 80.0474L164.801 82.4413L165.31 83.7755L159.224 81.452L156.041 87.5214Z" fill="#5672B6"/>
<path d="M166.609 89.139C166.883 90.4165 166.832 91.4012 166.456 92.0929C166.079 92.7847 165.434 93.2285 164.522 93.4243C164.12 93.5104 163.718 93.5252 163.314 93.4686C162.922 93.4192 162.547 93.2752 162.191 93.0368C161.834 92.7983 161.515 92.4467 161.234 91.982C160.962 91.5153 160.748 90.917 160.591 90.1869L160.35 89.0645L156.545 89.8811L156.281 88.6491L166.054 86.5519L166.609 89.139ZM165.532 89.2556L165.264 88.01L161.404 88.8383L161.616 89.8239C161.749 90.4444 161.923 90.9463 162.139 91.3295C162.364 91.7108 162.644 91.9705 162.98 92.1086C163.315 92.2467 163.719 92.2648 164.194 92.163C164.824 92.0279 165.251 91.7263 165.475 91.2582C165.699 90.7901 165.718 90.1226 165.532 89.2556Z" fill="#5672B6"/>
<path d="M160.963 100.926C160.284 100.666 159.712 100.396 159.246 100.115C158.791 99.8424 158.439 99.5078 158.192 99.111C157.953 98.7136 157.816 98.1981 157.778 97.5645C157.763 97.3037 157.767 97.0557 157.791 96.8205C157.815 96.5947 157.854 96.3867 157.908 96.1966L159.152 96.1235C159.079 96.3148 159.021 96.5192 158.978 96.7368C158.944 96.9538 158.934 97.1788 158.947 97.4118C158.968 97.7565 159.031 98.0473 159.139 98.284C159.256 98.5296 159.432 98.739 159.667 98.9122C159.902 99.0947 160.211 99.2589 160.593 99.4047L167.789 95.1255L167.87 96.5092L162.541 99.6129C162.478 99.654 162.401 99.6959 162.31 99.7387C162.228 99.7809 162.142 99.8233 162.051 99.8661C161.96 99.9181 161.874 99.9606 161.792 99.9935L161.795 100.049C161.862 100.073 161.938 100.097 162.023 100.12C162.119 100.152 162.209 100.179 162.295 100.202C162.39 100.234 162.471 100.262 162.538 100.286L168.214 102.365L168.292 103.693L160.963 100.926Z" fill="#5672B6"/>
<path d="M157.912 108.486L158.018 107.231L166.877 107.978L167.139 104.867L168.241 104.96L167.612 112.424L166.51 112.331L166.771 109.234L157.912 108.486Z" fill="#5672B6"/>
<path d="M167.187 115.103L166.903 116.244L161.578 114.918C161.351 114.862 161.103 114.795 160.834 114.719C160.571 114.653 160.31 114.583 160.049 114.509C159.789 114.434 159.557 114.362 159.353 114.292C159.156 114.234 159.004 114.186 158.898 114.15L158.884 114.204L165.584 121.542L165.246 122.901L155.546 120.486L155.83 119.345L161.101 120.657C161.346 120.718 161.607 120.788 161.886 120.867C162.173 120.948 162.447 121.026 162.708 121.1C162.975 121.186 163.212 121.259 163.418 121.32C163.624 121.381 163.775 121.429 163.873 121.462L163.886 121.408L157.149 114.046L157.487 112.688L167.187 115.103Z" fill="#5672B6"/>
<path d="M153.427 125.548L153.926 124.391L162.09 127.909L163.325 125.041L164.341 125.479L161.378 132.358L160.362 131.92L161.592 129.066L153.427 125.548Z" fill="#5672B6"/>
<path d="M148.685 134.198L151.581 129.421L160.129 134.603L157.233 139.38L156.287 138.807L158.53 135.107L155.86 133.489L153.748 136.973L152.814 136.407L154.926 132.923L151.874 131.072L149.631 134.772L148.685 134.198Z" fill="#5672B6"/>
<path d="M137.313 146.54L138.425 145.515L145.185 146.174L141.748 142.449L142.675 141.594L149.452 148.942L148.526 149.796L145.242 146.236L145.284 152.786L144.235 153.755L144.131 147.241L137.313 146.54Z" fill="#5672B6"/>
<path d="M131.892 156.114C131.47 155.464 131.169 154.82 130.988 154.181C130.813 153.549 130.765 152.935 130.845 152.338C130.917 151.746 131.13 151.191 131.484 150.673C131.83 150.159 132.32 149.697 132.954 149.286C133.612 148.859 134.25 148.591 134.867 148.479C135.49 148.376 136.084 148.408 136.648 148.576C137.218 148.752 137.754 149.055 138.256 149.486C138.758 149.917 139.22 150.458 139.641 151.108C140.199 151.969 140.546 152.812 140.68 153.637C140.815 154.462 140.713 155.24 140.374 155.971C140.028 156.707 139.417 157.359 138.54 157.928C137.702 158.471 136.88 158.748 136.075 158.758C135.275 158.777 134.519 158.554 133.808 158.092C133.094 157.643 132.455 156.984 131.892 156.114ZM138.517 151.819C138.06 151.114 137.569 150.571 137.043 150.189C136.517 149.807 135.962 149.611 135.377 149.6C134.784 149.595 134.175 149.796 133.548 150.202C132.914 150.613 132.486 151.086 132.264 151.619C132.034 152.157 131.987 152.744 132.121 153.38C132.255 154.016 132.551 154.686 133.008 155.391C133.693 156.448 134.448 157.132 135.272 157.443C136.102 157.762 136.99 157.614 137.938 157C138.572 156.589 139.008 156.111 139.246 155.568C139.48 155.038 139.531 154.455 139.396 153.819C139.267 153.191 138.974 152.524 138.517 151.819Z" fill="#5672B6"/>
<path d="M121.093 155.334L122.255 154.847L125.695 163.044L128.613 161.819C128.474 161.32 128.329 160.794 128.178 160.24C128.03 159.695 127.888 159.152 127.752 158.612C127.608 158.075 127.476 157.569 127.358 157.093C127.239 156.616 127.143 156.196 127.071 155.831C126.941 155.208 126.873 154.659 126.866 154.186C126.86 153.713 126.951 153.315 127.14 152.993C127.32 152.675 127.63 152.423 128.068 152.239C128.215 152.178 128.373 152.132 128.542 152.101C128.699 152.066 128.843 152.046 128.973 152.042L129.379 153.01C129.266 153.007 129.142 153.013 129.007 153.029C128.876 153.054 128.742 153.095 128.604 153.153C128.346 153.261 128.187 153.45 128.127 153.718C128.063 153.998 128.052 154.311 128.096 154.657C128.144 155.011 128.203 155.356 128.272 155.691C128.326 155.962 128.404 156.319 128.509 156.761C128.617 157.212 128.75 157.733 128.907 158.325C129.056 158.92 129.225 159.563 129.413 160.253C129.597 160.956 129.795 161.682 130.009 162.433L124.962 164.551L121.093 155.334Z" fill="#5672B6"/>
<path d="M113.552 157.299L118.972 155.949L121.388 165.648L115.968 166.998L115.701 165.925L119.898 164.88L119.144 161.85L115.191 162.835L114.927 161.775L118.88 160.791L118.017 157.326L113.819 158.372L113.552 157.299Z" fill="#5672B6"/>
<path d="M108.423 167.034C108.953 166.98 109.421 166.838 109.829 166.608C110.238 166.388 110.573 166.086 110.834 165.703C111.096 165.329 111.28 164.883 111.386 164.366C111.493 163.857 111.515 163.292 111.451 162.67C111.367 161.853 111.169 161.156 110.856 160.578C110.534 160.001 110.106 159.576 109.571 159.303C109.027 159.03 108.375 158.933 107.613 159.011C107.177 159.056 106.768 159.136 106.385 159.25C106.003 159.364 105.632 159.496 105.272 159.646L105.16 158.559C105.517 158.382 105.892 158.24 106.285 158.134C106.668 158.029 107.134 157.949 107.681 157.892C108.693 157.788 109.56 157.91 110.28 158.259C111.001 158.607 111.573 159.149 111.995 159.884C112.409 160.62 112.669 161.508 112.776 162.548C112.853 163.3 112.821 163.998 112.681 164.641C112.531 165.285 112.28 165.855 111.928 166.351C111.566 166.848 111.1 167.247 110.531 167.55C109.963 167.861 109.293 168.057 108.522 168.136C108.012 168.188 107.514 168.188 107.03 168.134C106.546 168.081 106.109 167.98 105.719 167.833L106.111 166.723C106.432 166.831 106.789 166.921 107.181 166.993C107.563 167.066 107.978 167.08 108.423 167.034Z" fill="#5672B6"/>
<path d="M94.3619 162.763C94.4156 161.99 94.5623 161.294 94.8019 160.674C95.0408 160.064 95.3716 159.544 95.7944 159.115C96.2079 158.686 96.7117 158.37 97.3058 158.168C97.8906 157.965 98.5601 157.89 99.3143 157.943C100.096 157.997 100.768 158.165 101.328 158.448C101.888 158.739 102.343 159.122 102.694 159.595C103.044 160.078 103.29 160.642 103.432 161.288C103.574 161.935 103.618 162.644 103.565 163.417C103.493 164.441 103.264 165.323 102.875 166.063C102.487 166.804 101.938 167.364 101.229 167.745C100.51 168.125 99.629 168.279 98.5862 168.207C97.5899 168.138 96.7669 167.865 96.117 167.39C95.4664 166.923 94.9958 166.292 94.705 165.495C94.4044 164.707 94.29 163.796 94.3619 162.763ZM102.239 163.311C102.297 162.473 102.231 161.743 102.04 161.121C101.85 160.5 101.524 160.01 101.062 159.65C100.591 159.29 99.9834 159.084 99.2385 159.032C98.4843 158.98 97.8585 159.1 97.361 159.393C96.8541 159.685 96.4633 160.125 96.1884 160.714C95.9135 161.303 95.7469 162.017 95.6886 162.855C95.6012 164.112 95.7936 165.112 96.2657 165.856C96.7373 166.609 97.5363 167.025 98.663 167.104C99.4171 167.156 100.052 167.036 100.568 166.745C101.075 166.462 101.465 166.026 101.74 165.437C102.014 164.857 102.181 164.149 102.239 163.311Z" fill="#5672B6"/>
<path d="M82.0774 154.028L81.6314 163.378L81.6828 163.401C81.7395 163.222 81.8208 162.998 81.9267 162.728C82.0241 162.455 82.1368 162.158 82.2648 161.837C82.3892 161.525 82.5215 161.206 82.6619 160.88L85.0604 155.313L86.1275 155.773L82.1725 164.953L80.4625 164.216L80.8743 155.476L80.8228 155.454L74.7023 161.735L73.0051 161.003L76.9601 151.823L78.1044 152.316L75.6727 157.961C75.5434 158.261 75.4118 158.555 75.2776 158.842C75.1398 159.139 75.0069 159.412 74.879 159.661C74.7474 159.92 74.6385 160.137 74.5524 160.313L74.6038 160.336L81.1259 153.618L82.0774 154.028Z" fill="#5672B6"/>
<path d="M74.8924 150.67L69.0042 158.747L67.986 158.005L70.4765 154.588L69.2321 153.681C68.4778 153.132 67.96 152.598 67.6785 152.081C67.3895 151.559 67.2809 151.058 67.3528 150.579C67.4172 150.095 67.606 149.638 67.9194 149.208C68.2658 148.732 68.67 148.392 69.132 148.186C69.5865 147.974 70.0964 147.924 70.6617 148.036C71.227 148.148 71.8415 148.446 72.5052 148.93L74.8924 150.67ZM71.969 149.855C71.3204 149.383 70.7507 149.158 70.2601 149.181C69.7694 149.205 69.3399 149.469 68.9715 149.975C68.7186 150.321 68.5934 150.652 68.5958 150.965C68.5907 151.273 68.706 151.583 68.9417 151.893C69.1774 152.204 69.5291 152.529 69.9967 152.87L71.128 153.695L73.2474 150.787L71.969 149.855ZM68.3985 145.936L62.5104 154.014L61.4922 153.272L67.3803 145.194L68.3985 145.936Z" fill="#5672B6"/>
<path d="M57.5406 134.481L65.1637 143.472L57.5392 149.937L56.7244 148.976L63.4946 143.236L60.9143 140.192L54.1441 145.932L53.3293 144.971L60.0995 139.231L57.5102 136.177L50.74 141.917L49.9161 140.945L57.5406 134.481Z" fill="#5672B6"/>
<path d="M47.5349 137.134L46.9896 136.092L51.852 133.547C52.0587 133.439 52.2883 133.324 52.5407 133.202C52.7805 133.077 53.0225 132.956 53.2666 132.838C53.5108 132.721 53.7323 132.621 53.9311 132.538C54.1174 132.451 54.2623 132.386 54.3658 132.342L54.3399 132.292L44.4579 131.254L43.8087 130.014L52.6652 125.379L53.2105 126.421L48.3977 128.94C48.1744 129.056 47.9325 129.178 47.6718 129.304C47.4028 129.434 47.1463 129.558 46.9022 129.675C46.6454 129.788 46.4198 129.89 46.2253 129.982C46.0308 130.073 45.8859 130.138 45.7906 130.178L45.8165 130.227L55.7422 131.258L56.3914 132.499L47.5349 137.134Z" fill="#5672B6"/>
<path d="M38.5634 111.075L47.3147 109.593L47.102 108.337L50.8013 107.71L51.0024 108.897L48.4073 109.337L49.5552 116.114L52.1503 115.675L52.3513 116.862L48.652 117.488L48.5234 116.729C47.8968 116.495 47.2042 116.29 46.4458 116.116C45.6858 115.932 44.8998 115.79 44.0878 115.691C43.2667 115.594 42.4525 115.538 41.6454 115.523C40.8383 115.508 40.0681 115.544 39.3349 115.63L38.5634 111.075ZM40.2683 114.35C40.8082 114.297 41.4266 114.287 42.1233 114.32C42.8184 114.344 43.539 114.407 44.285 114.508C45.0202 114.601 45.7371 114.726 46.4356 114.882C47.1326 115.029 47.7545 115.208 48.3013 115.418L47.5228 110.821L39.8895 112.114L40.2683 114.35Z" fill="#5672B6"/>
<path d="M48.1464 99.7468L48.1467 101.007L39.2567 101.009L39.2574 104.173C39.7708 104.238 40.3121 104.308 40.8815 104.383C41.4415 104.457 41.9969 104.536 42.5475 104.62C43.0982 104.695 43.6163 104.769 44.1016 104.844C44.587 104.918 45.0116 104.993 45.3757 105.068C46.001 105.189 46.5331 105.338 46.9718 105.515C47.4105 105.692 47.7419 105.93 47.9659 106.229C48.19 106.518 48.3021 106.901 48.3022 107.377C48.3023 107.535 48.2836 107.699 48.2463 107.867C48.2184 108.025 48.1811 108.165 48.1344 108.287L47.0844 108.287C47.1311 108.184 47.173 108.068 47.2103 107.937C47.2383 107.806 47.2523 107.666 47.2522 107.517C47.2522 107.237 47.1401 107.018 46.9161 106.859C46.6827 106.691 46.398 106.561 46.062 106.467C45.7166 106.374 45.376 106.295 45.0399 106.23C44.7693 106.174 44.4099 106.108 43.9619 106.034C43.5045 105.959 42.9725 105.88 42.3658 105.796C41.7591 105.703 41.1011 105.61 40.3918 105.517C39.6731 105.414 38.9264 105.316 38.1517 105.223L38.1504 99.7492L48.1464 99.7468Z" fill="#5672B6"/>
<path d="M44.7381 93.8567L48.4105 97.0807L48.1736 98.5315L44.3139 95.0641C44.137 95.3946 43.9171 95.6991 43.6541 95.9777C43.3926 96.2471 43.0618 96.4484 42.6618 96.5816C42.2617 96.7149 41.7715 96.7342 41.1912 96.6394C40.2977 96.4935 39.6665 96.0736 39.2975 95.3797C38.9193 94.6843 38.8302 93.7241 39.0303 92.499L39.4816 89.7356L49.3469 91.3466L49.1438 92.5902L45.054 91.9223L44.7381 93.8567ZM40.0987 92.6451C40.013 93.1701 40.0006 93.622 40.0617 94.0008C40.1228 94.3796 40.2665 94.6868 40.4928 94.9224C40.7207 95.1487 41.0418 95.2957 41.4563 95.3634C42.0643 95.4627 42.5672 95.3368 42.9649 94.9856C43.3627 94.6345 43.6308 94.0352 43.7692 93.1878L44.0039 91.7508L40.3424 91.1529L40.0987 92.6451Z" fill="#5672B6"/>
<path d="M52.091 82.2889L43.17 77.7793L46.5554 71.0824L55.4763 75.592L54.9142 76.704L46.9803 72.6933L44.7255 77.1538L52.6594 81.1644L52.091 82.2889Z" fill="#5672B6"/>
<path d="M50.7758 64.7175C51.5577 63.6706 52.333 63.0614 53.1017 62.8899C53.8704 62.7185 54.6287 62.912 55.3765 63.4705C55.7055 63.7162 55.9815 64.0097 56.2043 64.3508C56.4252 64.6789 56.5632 65.0557 56.6182 65.4812C56.6732 65.9067 56.6182 66.3781 56.4531 66.8955C56.2806 67.4073 55.9709 67.9624 55.5241 68.5606L54.8372 69.4804L57.9556 71.8092L57.2016 72.8188L49.1926 66.8376L50.7758 64.7175ZM51.5726 65.4523L50.8102 66.473L53.9735 68.8354L54.5766 68.0277C54.9564 67.5192 55.2196 67.0576 55.3662 66.6429C55.5053 66.2226 55.5167 65.8409 55.4003 65.4977C55.2838 65.1544 55.0312 64.8376 54.6423 64.5472C54.1263 64.1619 53.6183 64.0388 53.1184 64.1779C52.6184 64.3171 52.1031 64.7419 51.5726 65.4523Z" fill="#5672B6"/>
<path d="M65.1176 56.5461C65.6515 57.1075 66.0661 57.6856 66.3614 58.2806C66.6504 58.8688 66.8104 59.4636 66.8415 60.0652C66.8794 60.6603 66.7723 61.2451 66.5202 61.8198C66.2749 62.388 65.8784 62.9326 65.3306 63.4536C64.7625 63.9939 64.1851 64.3755 63.5986 64.5985C63.0056 64.8146 62.4161 64.8923 61.8301 64.8314C61.2376 64.7637 60.6551 64.5642 60.0824 64.233C59.5098 63.9018 58.9565 63.4555 58.4227 62.8941C57.7151 62.1502 57.2194 61.3852 56.9354 60.599C56.6515 59.8129 56.6084 59.0295 56.8062 58.2489C57.0108 57.4618 57.4918 56.7081 58.2493 55.9877C58.9729 55.2994 59.7296 54.8761 60.5191 54.7176C61.3023 54.5524 62.0859 54.6315 62.87 54.9548C63.6544 55.265 64.4036 55.7954 65.1176 56.5461ZM59.3961 61.9877C59.9749 62.5964 60.558 63.0401 61.1451 63.3189C61.7323 63.5977 62.3143 63.6882 62.8911 63.5905C63.4747 63.4863 64.037 63.1769 64.578 62.6623C65.1258 62.1413 65.4596 61.5984 65.5794 61.0337C65.706 60.4625 65.6447 59.8767 65.3957 59.2763C65.1467 58.6759 64.7328 58.0714 64.1539 57.4627C63.2855 56.5497 62.4176 56.0163 61.55 55.8625C60.676 55.7019 59.8298 56.0108 59.0115 56.7891C58.4637 57.3101 58.1231 57.8594 57.9898 58.437C57.8568 59.0014 57.9148 59.5838 58.1639 60.1842C58.4064 60.7779 58.8172 61.379 59.3961 61.9877Z" fill="#5672B6"/>
<path d="M68.3909 49.4063C67.9489 49.7023 67.6015 50.0474 67.3486 50.4414C67.0906 50.8276 66.9362 51.2512 66.8854 51.712C66.8294 52.1652 66.8757 52.6453 67.0243 53.1523C67.1677 53.6516 67.4134 54.161 67.7614 54.6806C68.2184 55.3631 68.7204 55.8862 69.2674 56.25C69.8221 56.6087 70.3997 56.7835 71.0003 56.7744C71.6086 56.7602 72.2307 56.5402 72.8666 56.1143C73.231 55.8702 73.5553 55.6081 73.8395 55.3279C74.1237 55.0477 74.3897 54.7572 74.6375 54.4564L75.2452 55.3638C75.0129 55.6878 74.7482 55.9887 74.4511 56.2663C74.1618 56.5387 73.7883 56.8281 73.3308 57.1345C72.4855 57.7006 71.6629 57.9988 70.8631 58.0289C70.0633 58.0591 69.3044 57.8484 68.5864 57.3969C67.8762 56.9402 67.2302 56.2776 66.6485 55.4091C66.2278 54.7809 65.9288 54.1499 65.7515 53.5161C65.5819 52.8771 65.5365 52.2559 65.6155 51.6526C65.7022 51.0441 65.9262 50.4728 66.2875 49.9388C66.6436 49.397 67.1435 48.9106 67.7871 48.4796C68.2136 48.1939 68.6532 47.9613 69.1058 47.7817C69.5585 47.6022 69.9918 47.4861 70.4059 47.4334L70.5792 48.5979C70.2454 48.653 69.8883 48.7405 69.5081 48.8603C69.1355 48.975 68.7632 49.157 68.3909 49.4063Z" fill="#5672B6"/>
<path d="M80.6273 53.0144L74.1519 46.2541L74.1004 46.2762C74.1911 46.4404 74.2977 46.6537 74.4202 46.916C74.5513 47.1746 74.6892 47.4607 74.8337 47.7745C74.9746 48.0797 75.1149 48.3953 75.2546 48.7213L77.6418 54.2934L76.5736 54.751L72.6373 45.5627L74.3488 44.8295L80.4051 51.1448L80.4566 51.1228L80.114 42.3596L81.8127 41.6319L85.7491 50.8202L84.6038 51.3108L82.1835 45.6614C82.0549 45.3612 81.9323 45.0634 81.816 44.768C81.6959 44.464 81.5893 44.1797 81.4962 43.915C81.3994 43.6417 81.3167 43.4131 81.2481 43.2293L81.1967 43.2513L81.5796 52.6064L80.6273 53.0144Z" fill="#5672B6"/>
<path d="M95.6275 43.4984C95.7818 44.2575 95.8261 44.9676 95.7604 45.6286C95.6928 46.2804 95.5125 46.8695 95.2194 47.3957C94.9355 47.9201 94.5342 48.3588 94.0154 48.7118C93.5058 49.063 92.8806 49.3139 92.1397 49.4644C91.3714 49.6206 90.6796 49.6373 90.0642 49.5148C89.4469 49.383 88.9062 49.1358 88.442 48.7729C87.9759 48.401 87.5882 47.9226 87.2789 47.3378C86.9696 46.753 86.7378 46.0811 86.5835 45.3219C86.3791 44.3158 86.3653 43.4043 86.5421 42.5874C86.719 41.7705 87.0985 41.0838 87.6807 40.5274C88.2721 39.9691 89.0799 39.5859 90.1043 39.3777C91.083 39.1789 91.9489 39.222 92.7021 39.507C93.4534 39.7829 94.0754 40.2661 94.5681 40.9564C95.0681 41.6358 95.4212 42.4831 95.6275 43.4984ZM87.8897 45.0708C88.0569 45.894 88.3153 46.5796 88.6648 47.1276C89.0142 47.6757 89.4593 48.0614 90 48.2849C90.5498 48.5065 91.1906 48.543 91.9223 48.3943C92.6631 48.2438 93.2343 47.961 93.6357 47.5461C94.0462 47.1293 94.3054 46.6005 94.4133 45.9595C94.5211 45.3185 94.4914 44.5864 94.3242 43.7632C94.0732 42.5285 93.6211 41.6156 92.9676 41.0245C92.3123 40.4243 91.4313 40.2367 90.3246 40.4616C89.5837 40.6121 89.0034 40.8967 88.5837 41.3153C88.1713 41.723 87.9112 42.2473 87.8033 42.8883C87.6936 43.5201 87.7224 44.2476 87.8897 45.0708Z" fill="#5672B6"/>
<path d="M101.447 48.2286L100.188 48.2795L99.8286 39.3968L96.7091 39.523L96.6644 38.4179L104.148 38.1152L104.193 39.2203L101.088 39.3459L101.447 48.2286Z" fill="#5672B6"/>
<path d="M109.308 38.4911C110.608 38.6249 111.529 38.9778 112.07 39.5496C112.612 40.1214 112.835 40.8716 112.739 41.8C112.697 42.2085 112.587 42.5959 112.409 42.9622C112.24 43.3202 111.988 43.632 111.651 43.8975C111.314 44.163 110.881 44.3577 110.352 44.4815C109.824 44.5961 109.189 44.6151 108.446 44.5386L107.304 44.421L106.906 48.2925L105.652 48.1634L106.676 38.22L109.308 38.4911ZM109.086 39.5519L107.819 39.4214L107.415 43.3487L108.417 43.4519C109.049 43.5169 109.58 43.506 110.011 43.419C110.443 43.3228 110.777 43.1366 111.012 42.8606C111.246 42.5845 111.389 42.2051 111.439 41.7223C111.504 41.0817 111.349 40.5825 110.973 40.2248C110.597 39.8671 109.968 39.6428 109.086 39.5519Z" fill="#5672B6"/>
<path d="M120.021 50.7513L119.637 47.4536L115.803 46.4532L113.871 49.1465L112.638 48.8248L118.952 40.0983L120.049 40.3846L121.281 51.0801L120.021 50.7513ZM119.234 43.0656C119.226 42.9863 119.215 42.8436 119.201 42.6374C119.187 42.4313 119.175 42.2206 119.163 42.0054C119.163 41.7836 119.159 41.6138 119.152 41.496C119.059 41.6648 118.961 41.837 118.858 42.0125C118.765 42.1813 118.672 42.3354 118.578 42.4748C118.493 42.6166 118.418 42.7369 118.353 42.8358L116.493 45.4755L119.554 46.2744L119.234 43.0656Z" fill="#5672B6"/>
</svg>
